<?xml version="1.0" standalone="no"?><!DOCTYPE svg PUBLIC "-//W3C//DTD SVG 1.1//EN" "http://www.w3.org/Graphics/SVG/1.1/DTD/svg11.dtd"><svg t="1757406895006" class="icon" viewBox="0 0 1024 1024" version="1.1" xmlns="http://www.w3.org/2000/svg" p-id="1240" xmlns:xlink="http://www.w3.org/1999/xlink" width="200" height="200"><path d="M893.632 324.352a29.92 29.92 0 0 0-8.256-15.968l-171.328-171.072a33.12 33.12 0 0 0-46.08 0 32.224 32.224 0 0 0 0 46.176l123.456 123.136h-576a28.896 28.896 0 0 0-28.352 28.992c0 16 12.992 28.416 28.352 28.416h576l-123.456 123.104a32.224 32.224 0 0 0 0 46.176 33.12 33.12 0 0 0 46.08 0l171.328-171.072a29.92 29.92 0 0 0 8.256-16 21.76 21.76 0 0 0 2.368-10.624 24.096 24.096 0 0 0-2.368-11.264z m-85.056 335.616h-576l123.456-123.104a32.224 32.224 0 0 0 0-46.176 33.152 33.152 0 0 0-46.08 0L138.624 661.76a28.288 28.288 0 0 0-8.256 15.36 25.696 25.696 0 0 0-2.368 11.264c0 3.552 0.576 7.68 2.368 11.264 1.184 5.92 3.52 11.232 8.256 15.968l171.328 171.072a33.152 33.152 0 0 0 46.08 0 32.224 32.224 0 0 0 0-46.176l-123.456-123.104h576a28.384 28.384 0 0 0 28.352-28.416c0-15.392-12.992-29.024-28.352-29.024z" fill="#1890ff" p-id="1241"></path></svg>
